<svg width="32" height="32" viewBox="0 0 32 32" fill="none" xmlns="http://www.w3.org/2000/svg">
  <rect width="32" height="32" rx="8" fill="#76B900"/>
  <path d="M7 11.5V21H10.1V14.1H13.3C15.85 14.1 17.3 15.15 17.3 17.55C17.3 19.95 15.85 21 13.3 21H11.75L13.95 17.95H13.3C12.15 17.95 11.35 17.55 11.35 16.4C11.35 15.25 12.15 14.85 13.3 14.85H13.7C14.85 14.85 15.6 15.5 15.6 16.7C15.6 17.95 14.8 18.6 13.55 18.6H12.95L10.15 22.5H13.3C18 22.5 20.55 20.45 20.55 17.55C20.55 14.65 18 12.6 13.3 12.6H10.1V11.5H7Z" fill="#0B1300"/>
  <path d="M21.7 13.2C23.7 14 25 15.35 25 17.1C25 19.9 21.65 22.1 16.75 22.1H16V20.45H16.75C20.75 20.45 23.2 18.95 23.2 17.15C23.2 15.85 21.95 14.75 19.85 14.15L21.7 13.2Z" fill="#0B1300"/>
</svg>
